name p02_s_01_labelled_grf.mot
datacolumns 46
datarows 12
range 0.004000 0.009500
endheader
time	1_ground_force_vx	1_ground_force_vy	1_ground_force_vz	1_ground_force_px	1_ground_force_py	1_ground_force_pz	1_ground_torque_x	1_ground_torque_y	1_ground_torque_z	2_ground_force_vx	2_ground_force_vy	2_ground_force_vz	2_ground_force_px	2_ground_force_py	2_ground_force_pz	2_ground_torque_x	2_ground_torque_y	2_ground_torque_z	3_ground_force_vx	3_ground_force_vy	3_ground_force_vz	3_ground_force_px	3_ground_force_py	3_ground_force_pz	3_ground_torque_x	3_ground_torque_y	3_ground_torque_z	4_ground_force_vx	4_ground_force_vy	4_ground_force_vz	4_ground_force_px	4_ground_force_py	4_ground_force_pz	4_ground_torque_x	4_ground_torque_y	4_ground_torque_z	5_ground_force_vx	5_ground_force_vy	5_ground_force_vz	5_ground_force_px	5_ground_force_py	5_ground_force_pz	5_ground_torque_x	5_ground_torque_y	5_ground_torque_z
            0.004000	           -0.198360	            0.125621	           -0.152682	            1.685507	           -0.014676	            0.536362	           -0.201608	            0.079094	            0.053509	           -0.041008	            1.553294	            0.139599	            0.109736	           -0.000126	            0.234430	            0.095492	            0.036282	           -0.206042	           -0.126190	            0.157620	           -0.373906	           -0.457621	            0.004852	            0.303465	            0.193542	           -0.031855	           -0.380521	            0.045822	            0.220860	            0.024841	           -0.917105	            0.009447	            0.559826	           -0.008116	           -0.033025	           -0.096595	            0.039926	            0.267006	           -0.028631	           -2.378880	            0.019708	            0.099365	           -0.000745	           -0.031591	            0.052022
            0.004500	           -0.172634	           -1.134298	            0.088408	            1.685507	           -0.014676	            0.536362	            0.112617	           -0.028331	           -0.164445	           -0.138697	           -0.955326	           -0.076042	            0.109736	           -0.000126	            0.234430	            0.174542	            0.173114	           -0.100355	            0.062674	           -0.782632	           -0.056565	           -0.457621	            0.004852	            0.303465	           -0.285018	            0.003723	           -0.147774	            0.052203	            1.008426	            0.183930	           -0.917105	            0.009447	            0.559826	           -0.053198	           -0.015126	            0.289717	           -0.116534	            0.270527	            0.292081	           -2.378880	            0.019708	            0.099365	           -0.152401	            0.069223	            0.371660
            0.005000	           -0.072660	            0.758464	           -0.032191	            1.685507	           -0.014676	            0.536362	           -0.077470	           -0.028932	            0.061193	            0.138989	           -1.114710	            0.048147	            0.109736	           -0.000126	            0.234430	            0.064096	            0.009629	            0.191047	           -0.016953	           -0.778458	           -0.136274	           -0.457621	            0.004852	            0.303465	           -0.015682	            0.066962	            0.501860	            0.128378	            0.534985	            0.064590	           -0.917105	            0.009447	            0.559826	           -0.076933	            0.071438	            0.129110	           -0.120731	           -1.458511	            0.210546	           -2.378880	            0.019708	            0.099365	            0.214673	           -0.015210	           -0.126115
            0.005500	            0.076906	           -0.351351	            0.008107	            1.685507	           -0.014676	            0.536362	           -0.179705	            0.025519	            0.126869	           -0.012555	           -0.171509	           -0.108259	            0.109736	           -0.000126	            0.234430	            0.141385	           -0.001302	            0.071058	           -0.032435	            1.405316	           -0.253104	           -0.457621	            0.004852	            0.303465	           -0.139803	           -0.009562	            0.390528	           -0.117182	           -0.092804	            0.143927	           -0.917105	            0.009447	            0.559826	           -0.080138	            0.098289	           -0.438536	            0.118770	           -0.202358	            0.210899	           -2.378880	            0.019708	            0.099365	           -0.114205	            0.019546	            0.111740
            0.006000	           -0.107129	            1.235519	            0.008038	            1.685507	           -0.014676	            0.536362	            0.020009	           -0.001999	           -0.439601	           -0.049022	            0.139487	           -0.268353	            0.109736	           -0.000126	            0.234430	           -0.242094	           -0.000126	           -0.042381	           -0.128839	           -0.154264	            0.063953	           -0.457621	            0.004852	            0.303465	            0.035862	            0.066742	            0.056978	            0.041922	           -0.253612	           -0.053972	           -0.917105	            0.009447	            0.559826	           -0.168580	            0.069496	            0.068752	            0.118926	           -0.205115	            0.250089	           -2.378880	            0.019708	            0.099365	            0.013270	           -0.073253	           -0.108013
            0.006500	            0.011307	            1.071873	           -0.112240	            1.685507	           -0.014676	            0.536362	           -0.204709	           -0.021873	            0.066017	           -0.077462	            1.867820	           -0.018457	            0.109736	           -0.000126	            0.234430	            0.102394	           -0.079824	            0.120012	           -0.167077	            0.002010	           -0.055408	           -0.457621	            0.004852	            0.303465	            0.271262	           -0.002020	           -0.437736	           -0.002447	           -0.726339	            0.026177	           -0.917105	            0.009447	            0.559826	           -0.207804	            0.028155	            0.342044	            0.078845	           -0.044178	            0.011028	           -2.378880	            0.019708	            0.099365	            0.195306	           -0.043091	            0.382667
            0.007000	           -0.115279	            0.442984	            0.048090	            1.685507	           -0.014676	            0.536362	           -0.015767	            0.029257	            0.279417	            0.116932	            1.083390	           -0.101444	            0.109736	           -0.000126	            0.234430	            0.142434	            0.007569	           -0.030933	           -0.251905	           -0.464128	           -0.095713	           -0.457621	            0.004852	            0.303465	            0.176985	            0.057036	            0.048436	            0.086171	            0.220814	           -0.092935	           -0.917105	            0.009447	            0.559826	            0.198251	           -0.090271	           -0.203734	            0.037642	           -0.831420	            0.011841	           -2.378880	            0.019708	            0.099365	            0.160438	            0.144688	           -0.004206
            0.007500	            0.040072	           -0.032087	           -0.152675	            1.685507	           -0.014676	            0.536362	           -0.036148	            0.043800	           -0.207138	           -0.012734	           -0.012897	            0.092601	            0.109736	           -0.000126	            0.234430	            0.360805	           -0.021663	           -0.202799	           -0.192068	            1.407465	           -0.571641	           -0.457621	            0.004852	            0.303465	            0.206996	           -0.057154	           -0.166908	           -0.010604	           -1.671339	           -0.011124	           -0.917105	            0.009447	            0.559826	            0.127020	           -0.061953	           -0.208731	            0.039757	            0.265427	           -0.068660	           -2.378880	            0.019708	            0.099365	            0.132711	           -0.078963	           -0.058116
            0.008000	           -0.080078	           -0.030641	            0.008325	            1.685507	           -0.014676	            0.536362	           -0.047029	           -0.004101	           -0.437582	           -0.035727	            2.025519	           -0.098580	            0.109736	           -0.000126	            0.234430	            0.077672	            0.003117	           -0.151433	           -0.157028	            0.938668	           -0.293395	           -0.457621	            0.004852	            0.303465	            0.091391	           -0.000428	           -0.000194	           -0.070174	            0.696056	            0.103669	           -0.917105	            0.009447	            0.559826	            0.087460	            0.013252	           -0.380470	            0.038200	           -0.358784	           -0.108265	           -2.378880	            0.019708	            0.099365	            0.005043	            0.080111	            0.161119
            0.008500	           -0.040331	           -0.030574	           -0.071710	            1.685507	           -0.014676	            0.536362	            0.024024	           -0.058092	           -0.213318	            0.163260	            2.024226	            0.022267	            0.109736	           -0.000126	            0.234430	            0.134166	            0.051781	            0.081446	           -0.201732	            0.470579	           -0.134360	           -0.457621	            0.004852	            0.303465	            0.113027	           -0.014559	           -0.167013	            0.125885	            0.220749	           -0.015280	           -0.917105	            0.009447	            0.559826	           -0.003239	            0.075236	           -0.533116	           -0.118065	           -0.043637	            0.091901	           -2.378880	            0.019708	            0.099365	           -0.072871	            0.043599	            0.260860
            0.009000	            0.073580	           -0.665785	           -0.072148	            1.685507	           -0.014676	            0.536362	           -0.108347	            0.024831	           -0.204675	            0.075222	            0.926674	           -0.023843	            0.109736	           -0.000126	            0.234430	            0.305984	            0.017120	           -0.526653	           -0.113098	            1.248234	            0.065532	           -0.457621	            0.004852	            0.303465	            0.197649	            0.032450	           -0.762595	            0.233716	           -1.200754	           -0.132620	           -0.917105	            0.009447	            0.559826	            0.102709	            0.074930	           -0.138147	           -0.078586	            0.266180	           -0.068002	           -2.378880	            0.019708	            0.099365	            0.198194	           -0.026363	            0.043955
            0.009500	           -0.075510	            0.445185	            0.048090	            1.685507	           -0.014676	            0.536362	            0.116784	            0.002601	           -0.161184	            0.193868	            0.764903	           -0.021755	            0.109736	           -0.000126	            0.234430	            0.338605	           -0.053147	           -0.573511	           -0.169220	           -0.154409	           -0.254879	           -0.457621	            0.004852	            0.303465	            0.121214	            0.041492	           -0.382567	            0.040458	           -0.568021	           -0.450817	           -0.917105	            0.009447	            0.559826	           -0.008958	           -0.043822	           -0.482782	           -0.161514	           -1.611700	           -0.028890	           -2.378880	            0.019708	            0.099365	           -0.065815	           -0.011831	            0.146855
